<svg xmlns="http://www.w3.org/2000/svg" viewBox="0 0 48 48">
  <circle cx="24" cy="24" r="24" fill="#25D366"/>
  <path fill="#ffffff" d="M34.6 13.3C32.1 10.8 28.7 9.4 25.1 9.4c-7.5 0-13.6 6.1-13.6 13.6 0 2.4.6 4.7 1.8 6.8L11 38l8.4-2.2c2 1.1 4.2 1.7 6.5 1.7h.1c7.5 0 13.6-6.1 13.6-13.6-.1-3.6-1.5-7-4-9.6zm-9.5 20.9h-.1c-2 0-4-.5-5.7-1.6l-.4-.2-4.2 1.1 1.1-4-.3-.4c-1.1-1.8-1.7-3.9-1.7-6 0-6.3 5.1-11.4 11.4-11.4 3 0 5.9 1.2 8.1 3.3 2.1 2.1 3.3 5 3.3 8-.1 6.3-5.2 11.2-11.5 11.2zm6.3-8.6c-.3-.2-2-.9-2.3-1-.3-.1-.6-.2-.8.2-.2.3-.9 1-1.1 1.3-.2.2-.4.2-.7.1-.3-.2-1.4-.5-2.7-1.6-1-.9-1.7-2-1.9-2.4-.2-.3 0-.5.1-.7.1-.1.3-.4.5-.5.1-.2.2-.3.3-.5.1-.2 0-.4-.1-.5-.1-.2-.8-1.9-1.1-2.6-.3-.7-.6-.6-.8-.6h-.7c-.2 0-.6.1-.9.4-.3.3-1.2 1.1-1.2 2.8s1.2 3.2 1.4 3.5c.2.2 2.4 3.6 5.7 5.1.8.3 1.4.5 1.9.7.8.2 1.5.2 2.1.1.6-.1 2-.8 2.3-1.6.3-.8.3-1.4.2-1.6-.1-.2-.4-.3-.7-.5z"/>
</svg>
